<svg width="50" height="50" viewBox="0 0 50 50" fill="none" xmlns="http://www.w3.org/2000/svg">
<path d="M48.7421 10.819L43.9114 5.98815C43.1397 5.2165 42.0893 4.73022 40.9027 4.73022C39.7096 4.73022 38.7305 5.15171 37.894 5.98815L18.4153 25.5252L12.1126 19.2225C11.2048 18.3148 10.0117 17.822 8.68244 17.822C7.42451 17.822 6.16005 18.3148 5.25229 19.2225L1.40065 23.0742C0.49281 23.9819 0 25.1751 0 26.5043C0 27.8336 0.49281 29.0267 1.40057 29.9345L15.4779 44.0118C16.2495 44.7834 17.2999 45.2697 18.4865 45.2697C19.6797 45.2697 20.6587 44.8482 21.4952 44.0118L48.742 16.7715C49.5136 15.9998 49.9999 14.9494 49.9999 13.7628C50 12.5697 49.5072 11.5841 48.7421 10.819ZM46.8487 14.9494L19.6797 42.1897C19.0507 42.8187 18.0002 42.8187 17.3712 42.1897L3.2875 28.0411C2.86601 27.6196 2.6585 27.062 2.6585 26.433C2.6585 25.804 2.86601 25.2399 3.2875 24.8249L7.13913 20.9733C7.56062 20.5518 8.11822 20.3443 8.74722 20.3443C9.37623 20.3443 9.94036 20.5518 10.3553 20.9733L17.4297 28.2551C17.9225 28.7479 18.7589 28.7479 19.2517 28.2551L39.703 7.80375C40.332 7.17475 41.3824 7.17475 42.0114 7.80375L46.8422 12.6346C47.1211 12.9134 47.335 13.3349 47.335 13.7563C47.3415 14.2491 47.1988 14.6706 46.8487 14.9494Z" fill="#C39F7B"/>
</svg>
