<svg width="50" height="44" viewBox="0 0 50 44" fill="none" xmlns="http://www.w3.org/2000/svg">
<path d="M49.7977 15.5292C49.852 17.8568 48.9335 19.9032 48.113 21.4449L48.1129 21.4451C46.2038 25.0436 43.5908 27.9293 41.2769 30.2872L41.2768 30.2872C37.1367 34.5079 32.3994 38.4775 26.3639 42.7871L26.3639 42.7871L26.3611 42.7891L26.3596 42.7903C26.1154 42.9711 25.665 43.3045 25.0007 43.3045C24.5686 43.3045 24.1506 43.1651 23.7532 42.8797L23.7528 42.8794C17.0635 38.0973 11.9321 33.7229 7.59915 29.1169L7.59913 29.1169C5.23622 26.6057 3.40315 24.1732 1.99166 21.6804L1.99162 21.6804C-0.625347 17.0627 -0.378792 12.1277 2.75385 6.98234C4.96823 3.3476 8.13183 1.13813 12.1583 0.407458L12.1585 0.407413C17.0047 -0.478204 21.9071 1.52407 24.8418 5.42982L25.0023 5.6434L25.162 5.42926C25.5412 4.92091 25.9451 4.45297 26.3759 4.01703C28.7699 1.59828 32.1438 0.21145 35.6307 0.21145C38.6493 0.21145 41.5597 1.24254 43.8243 3.11612L43.8245 3.11623C47.6679 6.29024 49.6753 10.4619 49.7977 15.5292ZM49.7977 15.5292C49.7977 15.5292 49.7977 15.5292 49.7977 15.5291L49.9976 15.5245M49.7977 15.5292C49.7977 15.5293 49.7977 15.5293 49.7977 15.5293L49.9976 15.5245M49.9976 15.5245C49.8739 10.4003 47.8408 6.17367 43.9518 2.96202L12.1226 0.210671C8.03751 0.951983 4.82586 3.19689 2.58305 6.87829C-0.581422 12.0759 -0.840409 17.0889 1.81762 21.779C3.23838 24.2881 5.0817 26.7333 7.45348 29.254C11.7975 33.8717 16.9395 38.2545 23.6365 43.0421C24.0643 43.3494 24.5225 43.5045 25.0007 43.5045C25.7311 43.5045 26.2262 43.1379 26.4745 42.9541L26.4801 42.9499C32.5228 38.6352 37.2695 34.6581 41.4196 30.4273C43.7369 28.066 46.3666 25.1636 48.2896 21.5389C49.1137 19.9902 50.0532 17.9057 49.9976 15.5245ZM24.9942 39.8759L24.8771 39.7912C18.7158 35.3338 13.9421 31.2374 9.90503 26.9437C7.72283 24.6247 6.03379 22.3922 4.74414 20.1161L24.9942 39.8759ZM24.9942 39.8759L25.1114 39.7913M24.9942 39.8759L25.1114 39.7913M25.1114 39.7913C30.7731 35.7033 35.1703 31.9927 39.0176 28.0697C41.1594 25.888 43.5922 23.2111 45.3185 19.9613C45.9794 18.7174 46.6705 17.2032 46.6347 15.6007L46.6347 15.6004C46.5337 11.4462 44.9543 8.15118 41.8091 5.55391C40.1058 4.14543 37.9119 3.37227 35.6307 3.37227C32.9851 3.37227 30.4327 4.41669 28.626 6.23944L28.6257 6.23969C27.7649 7.11121 27.0622 8.13234 26.4211 9.43989L26.4211 9.43999M25.1114 39.7913L26.4211 9.43999M26.4211 9.43999C26.1603 9.97269 25.6255 10.3123 25.0316 10.325C24.4539 10.3094 23.8802 10.0051 23.6054 9.48944L23.3001 8.91325C23.3 8.91312 23.2999 8.91298 23.2998 8.91284C21.4634 5.3929 18.2032 3.35444 14.5164 3.35444C13.9226 3.35444 13.3204 3.40791 12.7254 3.51703C9.62317 4.0804 7.17645 5.80455 5.45824 8.62697L26.4211 9.43999ZM3.37181 14.5669C3.49144 12.6666 4.19038 10.7076 5.4582 8.62704L3.37181 14.5669ZM3.37181 14.5669C3.25204 16.4696 3.714 18.2988 4.74412 20.116L3.37181 14.5669Z" fill="#C39F7B" stroke="white" stroke-width="0.4"/>
</svg>
