<svg width="50" height="50" viewBox="0 0 50 50" fill="none" xmlns="http://www.w3.org/2000/svg">
<path fill-rule="evenodd" clip-rule="evenodd" d="M2.07681 24.9999C2.07681 12.2973 12.3743 1.9999 25.0768 1.9999C37.7793 1.9999 48.0768 12.2973 48.0768 24.9999C48.0768 37.7024 37.7793 47.9999 25.0768 47.9999C12.3743 47.9999 2.07681 37.7024 2.07681 24.9999ZM25.0768 3.91045C13.4294 3.91045 3.98735 13.3525 3.98735 24.9999C3.98735 36.6473 13.4294 46.0894 25.0768 46.0894C36.7242 46.0894 46.1663 36.6473 46.1663 24.9999C46.1663 13.3525 36.7242 3.91045 25.0768 3.91045Z" fill="#C39F7B"/>
<path fill-rule="evenodd" clip-rule="evenodd" d="M1.87681 24.9999C1.87681 12.1869 12.2638 1.7999 25.0768 1.7999C37.8898 1.7999 48.2768 12.1869 48.2768 24.9999C48.2768 37.8129 37.8898 48.1999 25.0768 48.1999C12.2638 48.1999 1.87681 37.8129 1.87681 24.9999ZM25.0768 4.11045C13.5399 4.11045 4.18735 13.463 4.18735 24.9999C4.18735 36.5368 13.5399 45.8894 25.0768 45.8894C36.6137 45.8894 45.9663 36.5368 45.9663 24.9999C45.9663 13.463 36.6137 4.11045 25.0768 4.11045ZM25.0768 1.9999C12.3743 1.9999 2.07681 12.2973 2.07681 24.9999C2.07681 37.7024 12.3743 47.9999 25.0768 47.9999C37.7793 47.9999 48.0768 37.7024 48.0768 24.9999C48.0768 12.2973 37.7793 1.9999 25.0768 1.9999ZM3.98735 24.9999C3.98735 13.3525 13.4294 3.91045 25.0768 3.91045C36.7242 3.91045 46.1663 13.3525 46.1663 24.9999C46.1663 36.6473 36.7242 46.0894 25.0768 46.0894C13.4294 46.0894 3.98735 36.6473 3.98735 24.9999Z" fill="#C39F7B"/>
<path fill-rule="evenodd" clip-rule="evenodd" d="M1.92681 24.9999C1.92681 12.2145 12.2914 1.8499 25.0768 1.8499C37.8622 1.8499 48.2268 12.2145 48.2268 24.9999C48.2268 37.7853 37.8622 48.1499 25.0768 48.1499C12.2914 48.1499 1.92681 37.7853 1.92681 24.9999ZM25.0768 2.1499C12.4571 2.1499 2.22681 12.3802 2.22681 24.9999C2.22681 37.6196 12.4571 47.8499 25.0768 47.8499C37.6965 47.8499 47.9268 37.6196 47.9268 24.9999C47.9268 12.3802 37.6965 2.1499 25.0768 2.1499ZM25.0768 4.06045C13.5123 4.06045 4.13735 13.4354 4.13735 24.9999C4.13735 36.5644 13.5123 45.9394 25.0768 45.9394C36.6413 45.9394 46.0163 36.5644 46.0163 24.9999C46.0163 13.4354 36.6413 4.06045 25.0768 4.06045ZM3.83735 24.9999C3.83735 13.2697 13.3466 3.76045 25.0768 3.76045C36.807 3.76045 46.3163 13.2697 46.3163 24.9999C46.3163 36.7301 36.807 46.2394 25.0768 46.2394C13.3466 46.2394 3.83735 36.7301 3.83735 24.9999Z" fill="#C39F7B"/>
<path fill-rule="evenodd" clip-rule="evenodd" d="M1.72681 24.9999C1.72681 12.104 12.181 1.6499 25.0768 1.6499C37.9726 1.6499 48.4268 12.104 48.4268 24.9999C48.4268 37.8957 37.9726 48.3499 25.0768 48.3499C12.181 48.3499 1.72681 37.8957 1.72681 24.9999ZM25.0768 2.3499C12.5676 2.3499 2.42681 12.4906 2.42681 24.9999C2.42681 37.5091 12.5676 47.6499 25.0768 47.6499C37.586 47.6499 47.7268 37.5091 47.7268 24.9999C47.7268 12.4906 37.586 2.3499 25.0768 2.3499ZM25.0768 4.26045C13.6227 4.26045 4.33735 13.5458 4.33735 24.9999C4.33735 36.454 13.6227 45.7394 25.0768 45.7394C36.5309 45.7394 45.8163 36.454 45.8163 24.9999C45.8163 13.5458 36.5309 4.26045 25.0768 4.26045ZM3.63735 24.9999C3.63735 13.1592 13.2361 3.56045 25.0768 3.56045C36.9175 3.56045 46.5163 13.1592 46.5163 24.9999C46.5163 36.8406 36.9175 46.4394 25.0768 46.4394C13.2361 46.4394 3.63735 36.8406 3.63735 24.9999ZM25.0768 1.8499C12.2914 1.8499 1.92681 12.2145 1.92681 24.9999C1.92681 37.7853 12.2914 48.1499 25.0768 48.1499C37.8622 48.1499 48.2268 37.7853 48.2268 24.9999C48.2268 12.2145 37.8622 1.8499 25.0768 1.8499ZM2.22681 24.9999C2.22681 12.3802 12.4571 2.1499 25.0768 2.1499C37.6965 2.1499 47.9268 12.3802 47.9268 24.9999C47.9268 37.6196 37.6965 47.8499 25.0768 47.8499C12.4571 47.8499 2.22681 37.6196 2.22681 24.9999ZM4.13735 24.9999C4.13735 13.4354 13.5123 4.06045 25.0768 4.06045C36.6413 4.06045 46.0163 13.4354 46.0163 24.9999C46.0163 36.5644 36.6413 45.9394 25.0768 45.9394C13.5123 45.9394 4.13735 36.5644 4.13735 24.9999ZM25.0768 3.76045C13.3466 3.76045 3.83735 13.2697 3.83735 24.9999C3.83735 36.7301 13.3466 46.2394 25.0768 46.2394C36.807 46.2394 46.3163 36.7301 46.3163 24.9999C46.3163 13.2697 36.807 3.76045 25.0768 3.76045Z" fill="#C39F7B"/>
<path fill-rule="evenodd" clip-rule="evenodd" d="M22.6518 27.5716C22.6518 27.044 23.0795 26.6163 23.6071 26.6163H31.6901C32.2177 26.6163 32.6454 27.044 32.6454 27.5716C32.6454 28.0992 32.2177 28.5269 31.6901 28.5269H23.6071C23.0795 28.5269 22.6518 28.0992 22.6518 27.5716Z" fill="#C39F7B"/>
<path fill-rule="evenodd" clip-rule="evenodd" d="M22.4518 27.5716C22.4518 26.9336 22.969 26.4163 23.6071 26.4163H31.6901C32.3282 26.4163 32.8454 26.9336 32.8454 27.5716C32.8454 28.2096 32.3282 28.7269 31.6901 28.7269H23.6071C22.969 28.7269 22.4518 28.2096 22.4518 27.5716ZM23.6071 26.6163C23.0795 26.6163 22.6518 27.044 22.6518 27.5716C22.6518 28.0992 23.0795 28.5269 23.6071 28.5269H31.6901C32.2177 28.5269 32.6454 28.0992 32.6454 27.5716C32.6454 27.044 32.2177 26.6163 31.6901 26.6163H23.6071Z" fill="#C39F7B"/>
<path fill-rule="evenodd" clip-rule="evenodd" d="M22.5018 27.5716C22.5018 26.9612 22.9967 26.4663 23.6071 26.4663H31.6901C32.3006 26.4663 32.7954 26.9612 32.7954 27.5716C32.7954 28.182 32.3006 28.6769 31.6901 28.6769H23.6071C22.9967 28.6769 22.5018 28.182 22.5018 27.5716ZM23.6071 26.7663C23.1623 26.7663 22.8018 27.1269 22.8018 27.5716C22.8018 28.0163 23.1623 28.3769 23.6071 28.3769H31.6901C32.1349 28.3769 32.4954 28.0163 32.4954 27.5716C32.4954 27.1269 32.1349 26.7663 31.6901 26.7663H23.6071Z" fill="#C39F7B"/>
<path fill-rule="evenodd" clip-rule="evenodd" d="M22.3018 27.5716C22.3018 26.8507 22.8862 26.2663 23.6071 26.2663H31.6901C32.411 26.2663 32.9954 26.8507 32.9954 27.5716C32.9954 28.2925 32.411 28.8769 31.6901 28.8769H23.6071C22.8862 28.8769 22.3018 28.2925 22.3018 27.5716ZM23.6071 26.9663C23.2728 26.9663 23.0018 27.2373 23.0018 27.5716C23.0018 27.9059 23.2728 28.1769 23.6071 28.1769H31.6901C32.0244 28.1769 32.2954 27.9059 32.2954 27.5716C32.2954 27.2373 32.0244 26.9663 31.6901 26.9663H23.6071ZM23.6071 26.4663C22.9967 26.4663 22.5018 26.9612 22.5018 27.5716C22.5018 28.182 22.9967 28.6769 23.6071 28.6769H31.6901C32.3006 28.6769 32.7954 28.182 32.7954 27.5716C32.7954 26.9612 32.3006 26.4663 31.6901 26.4663H23.6071ZM22.8018 27.5716C22.8018 27.1269 23.1623 26.7663 23.6071 26.7663H31.6901C32.1349 26.7663 32.4954 27.1269 32.4954 27.5716C32.4954 28.0163 32.1349 28.3769 31.6901 28.3769H23.6071C23.1623 28.3769 22.8018 28.0163 22.8018 27.5716Z" fill="#C39F7B"/>
<path fill-rule="evenodd" clip-rule="evenodd" d="M23.2397 14.8592C23.7673 14.8592 24.195 15.2869 24.195 15.8145V26.8369C24.195 27.3644 23.7673 27.7921 23.2397 27.7921C22.7121 27.7921 22.2844 27.3644 22.2844 26.8369V15.8145C22.2844 15.2869 22.7121 14.8592 23.2397 14.8592Z" fill="#C39F7B"/>
<path fill-rule="evenodd" clip-rule="evenodd" d="M23.2397 14.6592C23.8777 14.6592 24.395 15.1765 24.395 15.8145V26.8369C24.395 27.4749 23.8777 27.9921 23.2397 27.9921C22.6017 27.9921 22.0844 27.4749 22.0844 26.8369V15.8145C22.0844 15.1765 22.6017 14.6592 23.2397 14.6592ZM24.195 15.8145C24.195 15.2869 23.7673 14.8592 23.2397 14.8592C22.7121 14.8592 22.2844 15.2869 22.2844 15.8145V26.8369C22.2844 27.3644 22.7121 27.7921 23.2397 27.7921C23.7673 27.7921 24.195 27.3644 24.195 26.8369V15.8145Z" fill="#C39F7B"/>
<path fill-rule="evenodd" clip-rule="evenodd" d="M22.1344 15.8145C22.1344 15.2041 22.6293 14.7092 23.2397 14.7092C23.8501 14.7092 24.345 15.2041 24.345 15.8145V26.8369C24.345 27.4473 23.8501 27.9421 23.2397 27.9421C22.6293 27.9421 22.1344 27.4473 22.1344 26.8369V15.8145ZM23.2397 15.0092C22.795 15.0092 22.4344 15.3698 22.4344 15.8145V26.8369C22.4344 27.2816 22.795 27.6421 23.2397 27.6421C23.6844 27.6421 24.045 27.2816 24.045 26.8369V15.8145C24.045 15.3698 23.6844 15.0092 23.2397 15.0092Z" fill="#C39F7B"/>
<path fill-rule="evenodd" clip-rule="evenodd" d="M21.9344 15.8145C21.9344 15.0936 22.5188 14.5092 23.2397 14.5092C23.9606 14.5092 24.545 15.0936 24.545 15.8145V26.8369C24.545 27.5577 23.9606 28.1421 23.2397 28.1421C22.5188 28.1421 21.9344 27.5577 21.9344 26.8369V15.8145ZM23.2397 15.2092C22.9054 15.2092 22.6344 15.4802 22.6344 15.8145V26.8369C22.6344 27.1711 22.9054 27.4421 23.2397 27.4421C23.574 27.4421 23.845 27.1711 23.845 26.8369V15.8145C23.845 15.4802 23.574 15.2092 23.2397 15.2092ZM23.2397 14.7092C22.6293 14.7092 22.1344 15.2041 22.1344 15.8145V26.8369C22.1344 27.4473 22.6293 27.9421 23.2397 27.9421C23.8501 27.9421 24.345 27.4473 24.345 26.8369V15.8145C24.345 15.2041 23.8501 14.7092 23.2397 14.7092ZM22.4344 15.8145C22.4344 15.3698 22.795 15.0092 23.2397 15.0092C23.6844 15.0092 24.045 15.3698 24.045 15.8145V26.8369C24.045 27.2816 23.6844 27.6421 23.2397 27.6421C22.795 27.6421 22.4344 27.2816 22.4344 26.8369V15.8145Z" fill="#C39F7B"/>
</svg>
