<svg width="50" height="50" viewBox="0 0 50 50" fill="none" xmlns="http://www.w3.org/2000/svg">
<path fill-rule="evenodd" clip-rule="evenodd" d="M22.3153 4.44995C23.5085 2.38328 26.4915 2.38329 27.6847 4.44995L49.3353 41.95C50.5285 44.0166 49.037 46.6 46.6506 46.6H3.34935C0.962968 46.6 -0.52851 44.0166 0.664678 41.95L22.3153 4.44995ZM25.7794 5.54995C25.433 4.94995 24.567 4.94995 24.2206 5.54995L2.56993 43.05C2.22352 43.65 2.65654 44.4 3.34935 44.4H46.6506C47.3434 44.4 47.7765 43.65 47.43 43.05L25.7794 5.54995Z" fill="#C39F7B"/>
<path fill-rule="evenodd" clip-rule="evenodd" d="M22.1421 4.34995C23.4123 2.14995 26.5877 2.14996 27.8579 4.34995L49.5085 41.85C50.7787 44.0499 49.191 46.8 46.6506 46.8H3.34935C0.809007 46.8 -0.778695 44.0499 0.491473 41.85L22.1421 4.34995ZM25.6062 5.64995C25.3368 5.18328 24.6632 5.18329 24.3938 5.64995L2.74314 43.15C2.47371 43.6166 2.8105 44.2 3.34935 44.2H46.6506C47.1895 44.2 47.5263 43.6166 47.2568 43.15L25.6062 5.64995ZM27.6847 4.44995C26.4915 2.38329 23.5085 2.38328 22.3153 4.44995L0.664678 41.95C-0.52851 44.0166 0.962968 46.6 3.34935 46.6H46.6506C49.037 46.6 50.5285 44.0166 49.3353 41.95L27.6847 4.44995ZM24.2206 5.54995C24.567 4.94995 25.433 4.94995 25.7794 5.54995L47.43 43.05C47.7765 43.65 47.3434 44.4 46.6506 44.4H3.34935C2.65654 44.4 2.22352 43.65 2.56993 43.05L24.2206 5.54995Z" fill="#C39F7B"/>
<path d="M23.8 20.2885C23.8 19.6257 24.3372 19.0885 25 19.0885C25.6627 19.0885 26.2 19.6257 26.2 20.2885V30.8885C26.2 31.5512 25.6627 32.0885 25 32.0885C24.3372 32.0885 23.8 31.5512 23.8 30.8885V20.2885Z" fill="#C39F7B"/>
<path fill-rule="evenodd" clip-rule="evenodd" d="M26.4 20.2885V30.8885C26.4 31.6617 25.7732 32.2885 25 32.2885C24.2268 32.2885 23.6 31.6617 23.6 30.8885V20.2885C23.6 19.5153 24.2268 18.8885 25 18.8885C25.7732 18.8885 26.4 19.5153 26.4 20.2885ZM25 19.0885C24.3372 19.0885 23.8 19.6257 23.8 20.2885V30.8885C23.8 31.5512 24.3372 32.0885 25 32.0885C25.6627 32.0885 26.2 31.5512 26.2 30.8885V20.2885C26.2 19.6257 25.6627 19.0885 25 19.0885Z" fill="#C39F7B"/>
<path d="M23.8 35.2885C23.8 34.6257 24.3372 34.0885 25 34.0885C25.6627 34.0885 26.2 34.6257 26.2 35.2885C26.2 35.9512 25.6627 36.4885 25 36.4885C24.3372 36.4885 23.8 35.9512 23.8 35.2885Z" fill="#C39F7B"/>
<path fill-rule="evenodd" clip-rule="evenodd" d="M25 36.6885C24.2268 36.6885 23.6 36.0617 23.6 35.2885C23.6 34.5153 24.2268 33.8885 25 33.8885C25.7732 33.8885 26.4 34.5153 26.4 35.2885C26.4 36.0617 25.7732 36.6885 25 36.6885ZM25 34.0885C24.3372 34.0885 23.8 34.6257 23.8 35.2885C23.8 35.9512 24.3372 36.4885 25 36.4885C25.6627 36.4885 26.2 35.9512 26.2 35.2885C26.2 34.6257 25.6627 34.0885 25 34.0885Z" fill="#C39F7B"/>
</svg>
