<svg width="153" height="37" viewBox="0 0 153 37" fill="none" xmlns="http://www.w3.org/2000/svg">
<path d="M10.6 1.62724C11 3.42724 10.7 3.72724 7.8 3.72724C6 3.72724 3.5 4.52724 2.3 5.52724L0 7.42724L2.1 18.5272C4.4 30.9272 6 35.0272 8.6 35.5272C10.1 35.8272 10.1 35.4272 8.2 31.1272C4.7 22.9272 3.9 17.0272 5.7 14.2272C7.6 11.3272 9.3 11.1272 13.3 13.2272C17 15.1272 17.1 16.6272 13.8 20.1272C11 23.2272 10.9 24.0272 12.4 30.5272C14 36.8272 15 37.7272 17.4 34.8272C21.6 29.6272 19 15.0272 12.7 9.22724L10 6.72724L13.4 7.32724C22.3 8.82724 25.9 11.2272 21.3 12.4272C18.3 13.2272 18.9 14.4272 22.1 13.9272C26.9 13.2272 27.6 15.3272 25.3 24.0272C24.3 28.2272 22.9 32.6272 22.3 33.7272C21.4 35.3272 21.5 35.7272 22.7 35.7272C25.9 35.7272 29.3 26.3272 30.8 13.4272C31.6 6.32724 29.9 3.72724 24.6 3.72724C21.9 3.72724 21.3 3.32724 21.3 1.62724C21.3 -0.172764 21.1 -0.272764 19.8 0.727236C18.6 1.72724 18 1.72724 16.9 0.827236C15.9 0.0272364 15.3 -0.0727636 14.8 0.727236C14.4 1.42724 13.5 1.42724 12.1 0.627236C10.2 -0.372764 10.1 -0.272764 10.6 1.62724Z" fill="#C39F7B"/>
<path d="M57.808 26H62.65L55.288 18.746L62.344 12.608H57.628L51.364 18.116V12.608H47.656V26H51.364V19.7L57.808 26ZM70.8228 12.392C64.5588 12.392 62.7768 16.082 62.7768 18.998V19.538C62.7768 22.418 64.5588 26.216 70.8228 26.216H71.6148C77.8788 26.216 79.6608 22.418 79.6608 19.538V18.998C79.6608 16.064 77.8788 12.392 71.6148 12.392H70.8228ZM75.8088 19.394C75.8088 21.014 74.9808 23.138 71.2188 23.138C67.5288 23.138 66.6288 21.014 66.6288 19.394V19.142C66.6288 17.486 67.4748 15.452 71.2188 15.452C74.9988 15.452 75.8088 17.486 75.8088 19.142V19.394ZM91.4448 21.716C95.6208 21.716 96.9888 19.79 96.9888 17.252V17.054C96.9888 14.462 95.6748 12.608 91.4448 12.608H82.3728V26H86.0808V21.716H91.4448ZM86.0808 15.596H91.1748C92.5428 15.596 93.1368 16.19 93.1368 17.126V17.198C93.1368 18.152 92.5428 18.728 91.1748 18.728H86.0808V15.596ZM107.034 12.392C100.77 12.392 98.9878 16.082 98.9878 18.998V19.538C98.9878 22.418 100.77 26.216 107.034 26.216H107.826C114.09 26.216 115.872 22.418 115.872 19.538V18.998C115.872 16.064 114.09 12.392 107.826 12.392H107.034ZM112.02 19.394C112.02 21.014 111.192 23.138 107.43 23.138C103.74 23.138 102.84 21.014 102.84 19.394V19.142C102.84 17.486 103.686 15.452 107.43 15.452C111.21 15.452 112.02 17.486 112.02 19.142V19.394ZM129.762 26H133.47V12.608H129.762V17.576H122.292V12.608H118.584V26H122.292V20.618H129.762V26ZM146.119 20.762H141.331L143.689 15.308L146.119 20.762ZM148.459 26H152.437L146.227 12.608H141.259L135.319 26H139.045L140.125 23.516H147.361L148.459 26Z" fill="#282626"/>
</svg>
