<svg width="60" height="60" viewBox="0 0 60 60" fill="none" xmlns="http://www.w3.org/2000/svg">
<path fill-rule="evenodd" clip-rule="evenodd" d="M40.0001 26.0001C40.0001 27.8386 39.638 29.6591 38.9344 31.3577C38.2309 33.0562 37.1996 34.5996 35.8996 35.8996C34.5996 37.1996 33.0562 38.2309 31.3577 38.9344C29.6591 39.638 27.8386 40.0001 26.0001 40.0001C24.1616 40.0001 22.3411 39.638 20.6425 38.9344C18.944 38.2309 17.4006 37.1996 16.1006 35.8996C14.8006 34.5996 13.7694 33.0562 13.0658 31.3577C12.3622 29.6591 12.0001 27.8386 12.0001 26.0001C12.0001 22.2871 13.4751 18.7261 16.1006 16.1006C18.7261 13.4751 22.2871 12.0001 26.0001 12.0001C29.7131 12.0001 33.2741 13.4751 35.8996 16.1006C38.5251 18.7261 40.0001 22.2871 40.0001 26.0001ZM37.2361 40.0641C33.6418 42.9357 29.0844 44.3219 24.4999 43.9383C19.9153 43.5546 15.6517 41.4301 12.5847 38.0011C9.51762 34.5721 7.87993 30.0988 8.00795 25.5001C8.13598 20.9013 10.02 16.5261 13.2731 13.2731C16.5261 10.02 20.9013 8.13598 25.5001 8.00795C30.0988 7.87993 34.5721 9.51762 38.0011 12.5847C41.4301 15.6517 43.5546 19.9153 43.9383 24.4999C44.3219 29.0844 42.9357 33.6418 40.0641 37.2361L51.4161 48.5841C51.6021 48.7701 51.7496 48.9908 51.8502 49.2338C51.9508 49.4767 52.0026 49.7371 52.0026 50.0001C52.0026 50.2631 51.9508 50.5235 51.8502 50.7665C51.7496 51.0094 51.6021 51.2302 51.4161 51.4161C51.2302 51.6021 51.0094 51.7496 50.7664 51.8502C50.5235 51.9508 50.2631 52.0026 50.0001 52.0026C49.7371 52.0026 49.4767 51.9508 49.2338 51.8502C48.9908 51.7496 48.7701 51.6021 48.5841 51.4161L37.2401 40.0641H37.2361Z" fill="white"/>
</svg>
